<?xml version="1.0"?>
<svg width="100" height="125" xmlns="http://www.w3.org/2000/svg" xmlns:svg="http://www.w3.org/2000/svg" enable-background="new 0 0 100 100" version="1.1" xml:space="preserve">

 <g class="layer">
  <title>Layer 1</title>
  <g id="svg_89">
   <g id="svg_1" transform="rotate(-16.0838, 61.2758, 67.7541)">
    <polygon fill="none" id="svg_2" points="73.94479370117188,52.64207458496094 76.52579498291016,52.696075439453125 75.09178924560547,57.87907409667969 72.5077896118164,57.83207702636719 "/>
    <polygon fill="none" id="svg_3" points="75.59379577636719,46.680076599121094 78.17679595947266,46.73307418823242 76.73579406738281,51.9390754699707 74.15479278564453,51.88607406616211 "/>
    <polygon fill="none" id="svg_4" points="63.91179656982422,97.47607421875 66.78679656982422,87.1260757446289 67.15679168701172,86.5740737915039 64.07179260253906,97.71807098388672 55.28278732299805,97.56707000732422 55.698787689208984,97.28507232666016 "/>
    <polygon fill="none" id="svg_5" points="67.61978912353516,84.0740737915039 70.49579620361328,73.72307586669922 70.8617935180664,73.16907501220703 67.77879333496094,84.31307220458984 58.98978805541992,84.16407012939453 59.408790588378906,83.88307189941406 "/>
    <polygon fill="none" id="svg_6" points="71.05879211425781,52.58207702636719 73.39379119873047,52.63107681274414 71.95879364013672,57.82207489013672 69.62079620361328,57.78007507324219 "/>
    <path d="m64.98,100.22l-12.26,-0.25l15.51,-56.04l12.26,0.25l-15.51,56.04zm3.55,-13.86l0.51,-1.81l3.15,-11.41l0.55,-2l3.11,-11.21l0.55,-2l3.66,-13.22l-11.61,-0.24l-3.66,13.22l-0.55,2l-3.1,11.21l-0.56,2l-3.15,11.41l-0.5,1.81l-3.71,13.4l11.6,0.25l3.71,-13.41z" fill="none" id="svg_7"/>
    <polygon fill="none" id="svg_8" points="62.66179656982422,70.93707275390625 63.06378936767578,70.66507720947266 71.27579498291016,70.85407257080078 74.15279388427734,60.50607681274414 74.52079010009766,59.95107650756836 71.435791015625,71.0970687866211 65.28279113769531,70.99107360839844 "/>
    <path d="m55.48,41.81l1.85,-6.53l25.58,0.53l-1.78,6.48l-25.65,-0.48zm27,-5.55l-24.94,-0.52l-1.56,5.65l24.93,0.52l1.57,-5.65z" fill="none" id="svg_9"/>
    <polygon fill="none" id="svg_10" points="69.67179107666016,68.73607635498047 64.99079132080078,68.66707611083984 67.185791015625,60.72807693481445 71.84479522705078,60.79707717895508 "/>
    <polygon fill="none" id="svg_11" points="72.70879364013672,46.619075775146484 75.04579162597656,46.66807556152344 73.60478973388672,51.873077392578125 71.26979064941406,51.82607650756836 "/>
    <polygon fill="none" id="svg_12" points="69.40779113769531,46.55107498168945 72.1607894897461,46.60707473754883 70.71979522705078,51.8140754699707 67.96678924560547,51.75607681274414 "/>
    <polygon fill="none" id="svg_13" points="67.75679016113281,52.514076232910156 70.5087890625,52.57207489013672 69.07179260253906,57.770076751708984 66.31879425048828,57.72007751464844 "/>
    <polygon fill="none" id="svg_14" points="49.63779067993164,70.66707611083984 50.04079055786133,70.39307403564453 58.253787994384766,70.58606719970703 61.12879180908203,60.23507308959961 61.49578857421875,59.68107604980469 58.413787841796875,70.8260726928711 52.259788513183594,70.7220687866211 "/>
    <polygon fill="none" id="svg_15" points="50.88978958129883,97.20507049560547 53.76478958129883,86.85607147216797 54.132789611816406,86.30307006835938 51.04779052734375,97.44707489013672 42.2587890625,97.2980728149414 42.676788330078125,97.01707458496094 "/>
    <path d="m51.96,99.96l-12.31,-0.26l15.5,-56.05l12.32,0.26l-15.51,56.05zm3.55,-13.87l0.5,-1.81l3.16,-11.41l0.55,-2l3.1,-11.21l0.56,-2l3.65,-13.22l-11.61,-0.24l-3.65,13.21l-0.56,2.01l-3.1,11.21l-0.55,2l-3.16,11.41l-0.5,1.81l-3.71,13.4l11.61,0.24l3.71,-13.4z" fill="none" id="svg_16"/>
    <polygon fill="none" id="svg_17" points="60.91979217529297,52.372074127197266 63.50279235839844,52.42607498168945 62.07079315185547,57.610076904296875 59.48579025268555,57.562076568603516 "/>
    <polygon fill="none" id="svg_18" points="54.5967903137207,83.80307006835938 57.47378921508789,73.45207214355469 57.83979034423828,72.8990707397461 54.75579071044922,84.04307556152344 45.96778869628906,83.89307403564453 46.38578796386719,83.61206817626953 "/>
    <polygon fill="none" id="svg_19" points="56.3837890625,46.28007507324219 59.13779067993164,46.338077545166016 57.69778823852539,51.54407501220703 54.94478988647461,51.48707580566406 "/>
    <polygon fill="none" id="svg_20" points="62.57079315185547,46.40907669067383 65.15279388427734,46.463077545166016 63.7117919921875,51.66907501220703 61.129791259765625,51.615074157714844 "/>
    <polygon fill="none" id="svg_21" points="58.03678894042969,52.312076568603516 60.371788024902344,52.360076904296875 58.936790466308594,57.55207443237305 56.59878921508789,57.510074615478516 "/>
    <polygon fill="none" id="svg_22" points="59.685787200927734,46.34907531738281 62.02378845214844,46.39707565307617 60.582794189453125,51.60307693481445 58.24578857421875,51.555076599121094 "/>
    <polygon fill="none" id="svg_23" points="54.73579025268555,52.244075775146484 57.48678970336914,52.30007553100586 56.04978942871094,57.50007629394531 53.29378890991211,57.450077056884766 "/>
    <polygon id="svg_24" points="57.53778839111328,35.74907302856445 82.47179412841797,36.2670783996582 80.9107894897461,41.90907669067383 55.97779083251953,41.391075134277344 "/>
    <path d="m43.9,85.85l0.5,-1.81l3.16,-11.41l0.55,-2l3.1,-11.21l0.56,-2.01l3.65,-13.21l11.61,0.24l-3.65,13.21l-0.56,2.01l-3.1,11.21l-0.56,2l-3.15,11.41l-0.5,1.81l-3.71,13.4l-11.61,-0.24l3.71,-13.4zm15.24,-39.52l-2.75,-0.05l-1.44,5.2l2.75,0.06l1.44,-5.21zm-1.65,5.97l-2.75,-0.06l-1.44,5.21l2.75,0.05l1.44,-5.2zm4.54,-5.91l-2.34,-0.05l-1.44,5.21l2.34,0.05l1.44,-5.21zm-1.65,5.97l-2.34,-0.05l-1.44,5.2l2.34,0.04l1.44,-5.19zm4.78,-5.9l-2.58,-0.06l-1.44,5.21l2.58,0.06l1.44,-5.21zm-1.65,5.96l-2.59,-0.05l-1.43,5.19l2.58,0.05l1.44,-5.19zm-2.01,7.26l-0.37,0.55l-2.87,10.35l-8.22,-0.19l-0.4,0.27l2.62,0.06l6.16,0.1l3.08,-11.14zm-10.45,37.76l3.09,-11.14l-0.37,0.55l-2.88,10.35l-8.21,-0.19l-0.42,0.28l8.79,0.15zm3.71,-13.4l3.08,-11.14l-0.36,0.55l-2.88,10.35l-8.21,-0.19l-0.42,0.28l8.79,0.15z" id="svg_25"/>
    <path d="m56.93,86.12l0.5,-1.81l3.15,-11.41l0.55,-2l3.11,-11.21l0.55,-2l3.66,-13.22l11.6,0.24l-3.65,13.22l-0.56,2l-3.1,11.21l-0.55,2.01l-3.16,11.4l-0.5,1.81l-3.71,13.41l-11.6,-0.24l3.71,-13.41zm15.23,-39.52l-2.75,-0.05l-1.44,5.2l2.75,0.06l1.44,-5.21zm-1.65,5.97l-2.75,-0.06l-1.44,5.21l2.76,0.05l1.43,-5.2zm4.54,-5.91l-2.34,-0.04l-1.44,5.2l2.34,0.05l1.44,-5.21zm-1.65,5.97l-2.34,-0.05l-1.43,5.2l2.33,0.04l1.44,-5.19zm4.78,-5.9l-2.58,-0.05l-1.44,5.2l2.58,0.06l1.44,-5.21zm-1.65,5.96l-2.58,-0.05l-1.44,5.19l2.59,0.04l1.43,-5.18zm-2.01,7.26l-0.36,0.55l-2.88,10.35l-8.21,-0.19l-0.4,0.27l2.62,0.06l6.15,0.1l3.08,-11.14zm-10.44,37.76l3.08,-11.14l-0.37,0.55l-2.87,10.35l-8.22,-0.19l-0.41,0.28l8.79,0.15zm3.7,-13.4l3.09,-11.15l-0.37,0.56l-2.88,10.35l-8.21,-0.19l-0.42,0.28l8.79,0.15z" id="svg_26"/>
   </g>
   <g id="svg_27" transform="rotate(-16.0838, 49.8331, 64.6705)">
    <polygon fill="none" id="svg_28" points="27.484609603881836,62.264488220214844 30.363609313964844,51.879486083984375 30.37160873413086,51.22248840332031 27.258609771728516,62.39848709106445 31.600608825683594,65.21248626708984 33.45460891723633,66.4024887084961 33.302608489990234,65.9734878540039 "/>
    <polygon fill="none" id="svg_29" points="34.224609375,45.12248992919922 32.397605895996094,43.949485778808594 30.949607849121094,49.146488189697266 32.77360916137695,50.32548904418945 "/>
    <polygon fill="none" id="svg_30" points="23.79261016845703,75.51648712158203 26.674610137939453,65.13348388671875 26.679609298706055,64.47748565673828 23.567609786987305,75.65048217773438 29.76860809326172,79.6714859008789 29.61160659790039,79.22848510742188 "/>
    <polygon fill="none" id="svg_31" points="47.14160919189453,46.367488861083984 45.487606048583984,45.30548858642578 44.03460693359375,50.52548599243164 45.68760681152344,51.585487365722656 "/>
    <path d="m18,90.85l8.67,5.57l15.65,-56.2l-8.66,-5.56l-15.66,56.19zm4.07,-13.77l0.51,-1.81l3.18,-11.44l0.56,-2l3.14,-11.25l0.55,-2.01l3.7,-13.25l8.21,5.27l-3.69,13.25l-0.56,2.01l-3.14,11.25l-0.55,2l-3.19,11.44l-0.51,1.82l-3.74,13.43l-8.21,-5.27l3.74,-13.44z" fill="none" id="svg_32"/>
    <polygon fill="none" id="svg_33" points="36.863609313964844,45.921485900878906 38.811607360839844,47.171485900878906 40.26460647583008,41.953487396240234 38.31760787963867,40.70248794555664 "/>
    <polygon fill="none" id="svg_34" points="35.20060729980469,51.89348602294922 37.1466064453125,53.1514892578125 38.600608825683594,47.931488037109375 36.65260696411133,46.68248748779297 "/>
    <polygon fill="none" id="svg_35" points="37.92960739135742,40.45248794555664 36.27760696411133,39.392486572265625 34.822608947753906,44.611488342285156 36.475608825683594,45.6724853515625 "/>
    <polygon fill="none" id="svg_36" points="36.26460647583008,46.43248748779297 34.61160659790039,45.37148666381836 33.1626091003418,50.57648849487305 34.81260681152344,51.642486572265625 "/>
    <polygon fill="none" id="svg_37" points="29.60260772705078,61.172489166259766 32.901607513427734,63.323486328125 35.11860656738281,55.36448669433594 31.83660888671875,53.2244873046875 "/>
    <polygon fill="none" id="svg_38" points="35.888607025146484,39.14348602294922 34.061607360839844,37.970489501953125 32.60860824584961,43.190486907958984 34.43560791015625,44.36248779296875 "/>
    <polygon fill="none" id="svg_39" points="20.048608779907227,88.9534912109375 22.931610107421875,78.57148742675781 22.935609817504883,77.91548919677734 19.824609756469727,89.09048461914062 26.026609420776367,93.10948944091797 25.86760902404785,92.66648864746094 "/>
    <polygon fill="none" id="svg_40" points="46.07560729980469,51.835487365722656 48.022605895996094,53.085487365722656 49.478607177734375,47.867488861083984 47.52960968017578,46.61648941040039 "/>
    <polygon fill="none" id="svg_41" points="44.4116096496582,57.80848693847656 46.35660934448242,59.065486907958984 47.81060791015625,53.84548568725586 45.86460876464844,52.59548568725586 "/>
    <path d="m27.21,96.76l8.71,5.59l15.65,-56.19l-8.71,-5.59l-15.65,56.19zm4.07,-13.76l0.51,-1.82l3.19,-11.44l0.55,-2l3.14,-11.25l0.56,-2.01l3.69,-13.25l8.21,5.27l-3.69,13.26l-0.56,2l-3.14,11.25l-0.55,2.01l-3.19,11.43l-0.5,1.82l-3.75,13.44l-8.21,-5.27l3.74,-13.44z" fill="none" id="svg_42"/>
    <polygon fill="none" id="svg_43" points="36.69560623168945,68.17648315429688 39.577606201171875,57.793487548828125 39.58260726928711,57.1364860534668 36.47060775756836,68.31149291992188 40.81260681152344,71.1264877319336 42.66660690307617,72.31848907470703 42.513607025146484,71.89048767089844 "/>
    <polygon fill="none" id="svg_44" points="45.474609375,52.34548568725586 43.824607849121094,51.28548812866211 42.37360763549805,56.49048614501953 44.02460861206055,57.55748748779297 "/>
    <polygon fill="none" id="svg_45" points="29.260608673095703,94.86848449707031 32.14160919189453,84.48448944091797 32.147605895996094,83.8294906616211 29.036605834960938,95.00348663330078 35.237606048583984,99.02349090576172 35.07960891723633,98.58148956298828 "/>
    <polygon fill="none" id="svg_46" points="45.10160827636719,45.056488037109375 43.27460861206055,43.88448715209961 41.82060623168945,49.104488372802734 43.6466064453125,50.2764892578125 "/>
    <polygon fill="none" id="svg_47" points="43.434608459472656,51.0364875793457 41.6096076965332,49.86448669433594 40.160606384277344,55.059486389160156 41.9856071472168,56.23948669433594 "/>
    <polygon fill="none" id="svg_48" points="33.00360870361328,81.4284896850586 35.88460922241211,71.0464859008789 35.89160919189453,70.39148712158203 32.77860641479492,81.56449127197266 38.98060607910156,85.58548736572266 38.82060623168945,85.14248657226562 "/>
    <polygon id="svg_49" points="34.43360900878906,32.47248840332031 52.068607330322266,43.79548645019531 53.645606994628906,38.13848876953125 36.00860595703125,26.815486907958984 "/>
    <g id="svg_50">
     <polygon fill="none" id="svg_51" points="54.17660903930664,44.86848831176758 79.8246078491211,45.34348678588867 81.66260528564453,38.72648620605469 80.34060668945312,38.74448776245117 80.33560943603516,38.75948715209961 56.01260757446289,38.25348663330078 "/>
     <polygon fill="none" id="svg_52" points="66.9216079711914,46.98048782348633 51.41560745239258,103.02349090576172 63.672607421875,103.27848815917969 79.17860412597656,47.23548889160156 "/>
     <polygon fill="none" id="svg_53" points="53.849609375,46.70848846435547 38.34660720825195,102.75448608398438 50.65660858154297,103.01049041748047 66.16260528564453,46.9644889831543 "/>
     <polygon fill="none" id="svg_54" points="53.36860656738281,40.574485778808594 53.684608459472656,39.43048858642578 53.712608337402344,39.431488037109375 54.167606353759766,37.918487548828125 52.132606506347656,36.61248779296875 52.125606536865234,36.607486724853516 36.555606842041016,26.611488342285156 36.568607330322266,26.56448745727539 35.94460678100586,26.062488555908203 34.100608825683594,32.70648956298828 52.21460723876953,44.40348815917969 "/>
     <polygon fill="none" id="svg_55" points="18.007610321044922,90.85448455810547 26.67660903930664,96.41948699951172 42.327606201171875,40.22648620605469 33.658607482910156,34.6614875793457 "/>
     <polygon fill="none" id="svg_56" points="51.5736083984375,46.16348648071289 42.86460876464844,40.57148742675781 27.21360969543457,96.76448822021484 35.921607971191406,102.35649108886719 "/>
    </g>
    <path d="m39.5,88.27l0.5,-1.82l3.19,-11.43l0.56,-2.01l3.13,-11.24l0.56,-2.01l3.69,-13.26l-8.21,-5.27l-3.69,13.26l-0.56,2l-3.14,11.25l-0.55,2l-3.19,11.44l-0.51,1.82l-3.74,13.44l8.21,5.27l3.75,-13.44zm5.98,-42.97l1.66,1.06l-1.46,5.22l-1.65,-1.06l1.45,-5.22zm-1.66,5.98l1.65,1.06l-1.45,5.21l-1.65,-1.06l1.45,-5.21zm-0.55,-7.4l1.83,1.17l-1.46,5.22l-1.82,-1.17l1.45,-5.22zm-1.66,5.98l1.82,1.17l-1.45,5.21l-1.82,-1.18l1.45,-5.2zm-12.58,45.14l3.11,-11.17l0,0.65l-2.88,10.39l5.82,3.71l0.15,0.44l-6.2,-4.02zm3.74,-13.44l3.12,-11.17l-0.01,0.65l-2.88,10.39l5.82,3.71l0.16,0.44l-6.21,-4.02zm8.04,-10.44l-4.34,-2.81l3.11,-11.18l-0.01,0.66l-2.88,10.38l5.82,3.72l0.15,0.42l-1.85,-1.19zm5.54,-12.06l-1.94,-1.25l1.45,-5.22l1.95,1.25l-1.46,5.22zm1.67,-5.98l-1.95,-1.25l1.46,-5.22l1.94,1.25l-1.45,5.22z" id="svg_57"/>
    <path d="m30.28,82.35l0.51,-1.82l3.18,-11.43l0.56,-2.01l3.14,-11.24l0.56,-2.01l3.69,-13.25l-8.21,-5.27l-3.7,13.25l-0.56,2.01l-3.13,11.25l-0.56,2l-3.18,11.44l-0.51,1.81l-3.74,13.44l8.21,5.27l3.74,-13.44zm5.99,-42.96l1.66,1.06l-1.46,5.22l-1.65,-1.06l1.45,-5.22zm-1.15,15.97l-2.22,7.96l-3.3,-2.15l2.23,-7.95l3.29,2.14zm-0.51,-9.99l1.65,1.06l-1.45,5.21l-1.65,-1.07l1.45,-5.2zm-0.55,-7.4l1.83,1.17l-1.46,5.22l-1.82,-1.17l1.45,-5.22zm-1.67,5.98l1.83,1.17l-1.45,5.2l-1.82,-1.18l1.44,-5.19zm-12.57,45.14l3.11,-11.18l0,0.66l-2.88,10.38l5.81,3.71l0.16,0.45l-6.2,-4.02zm3.74,-13.44l3.12,-11.18l-0.01,0.66l-2.88,10.38l5.82,3.71l0.16,0.45l-6.21,-4.02zm8.04,-10.44l-4.34,-2.81l3.11,-11.18l-0.01,0.66l-2.88,10.38l5.82,3.71l0.15,0.43l-1.85,-1.19zm5.54,-12.06l-1.94,-1.26l1.45,-5.21l1.95,1.25l-1.46,5.22zm1.67,-5.98l-1.95,-1.25l1.45,-5.22l1.95,1.25l-1.45,5.22z" id="svg_58"/>
   </g>
   <g id="svg_59" transform="rotate(-16.0838, 48.657, 63.1706)">
    <polygon fill="none" id="svg_60" points="26.752042770385742,97.03160095214844 35.46004104614258,102.62360382080078 51.11204147338867,46.430599212646484 42.40304183959961,40.838600158691406 "/>
    <polygon fill="none" id="svg_61" points="17.546043395996094,91.12159729003906 26.215042114257812,96.68659973144531 41.86603927612305,40.49359893798828 33.19704055786133,34.928598403930664 "/>
    <polygon fill="none" id="svg_62" points="53.38804244995117,46.97560119628906 37.885040283203125,103.02159881591797 50.19504165649414,103.27760314941406 65.70104217529297,47.23160171508789 "/>
    <polygon fill="none" id="svg_63" points="79.8740463256836,39.0265998840332 55.55104064941406,38.520599365234375 53.71504211425781,45.13560104370117 79.36304473876953,45.610599517822266 81.20104217529297,38.99359893798828 79.87904357910156,39.011600494384766 "/>
    <polygon fill="none" id="svg_64" points="51.664039611816406,36.87459945678711 36.09403991699219,26.878599166870117 36.10704040527344,26.83159828186035 35.48303985595703,26.329599380493164 33.639041900634766,32.97360038757324 51.7530403137207,44.67060089111328 52.907039642333984,40.84159851074219 53.22304153442383,39.697601318359375 53.251041412353516,39.69860076904297 53.70603942871094,38.18560028076172 51.67103958129883,36.879600524902344 "/>
    <polygon fill="none" id="svg_65" points="66.46004486083984,47.24760055541992 50.95404052734375,103.29060363769531 63.21104431152344,103.54560089111328 78.717041015625,47.502601623535156 "/>
    <rect height="0.09" id="svg_66" width="0" x="61.28" y="26.97"/>
    <polygon id="svg_67" points="61.291046142578125,26.97159767150879 61.307044982910156,26.91459846496582 61.29004669189453,26.97159767150879 "/>
    <g id="svg_68">
     <polygon fill="none" id="svg_69" points="17.546043395996094,91.12159729003906 26.215042114257812,96.68659973144531 41.86603927612305,40.49359893798828 33.19704055786133,34.928598403930664 "/>
     <polygon fill="none" id="svg_70" points="51.664039611816406,36.87459945678711 36.09403991699219,26.878599166870117 36.10704040527344,26.83159828186035 35.48303985595703,26.329599380493164 33.639041900634766,32.97360038757324 51.7530403137207,44.67060089111328 52.907039642333984,40.84159851074219 53.22304153442383,39.697601318359375 53.251041412353516,39.69860076904297 53.70603942871094,38.18560028076172 51.67103958129883,36.879600524902344 "/>
     <polygon fill="none" id="svg_71" points="26.752042770385742,97.03160095214844 35.46004104614258,102.62360382080078 51.11204147338867,46.430599212646484 42.40304183959961,40.838600158691406 "/>
     <polygon fill="none" id="svg_72" points="79.8740463256836,39.0265998840332 55.55104064941406,38.520599365234375 53.71504211425781,45.13560104370117 79.36304473876953,45.610599517822266 81.20104217529297,38.99359893798828 79.87904357910156,39.011600494384766 "/>
     <polygon fill="none" id="svg_73" points="66.46004486083984,47.24760055541992 50.95404052734375,103.29060363769531 63.21104431152344,103.54560089111328 78.717041015625,47.502601623535156 "/>
     <polygon fill="none" id="svg_74" points="62.84904479980469,28.80059814453125 62.06504821777344,28.28959846496582 62.35504150390625,27.534597396850586 61.93804168701172,27.48059844970703 61.663047790527344,28.468599319458008 62.434043884277344,29.01959800720215 61.9200439453125,30.656599044799805 57.38804244995117,30.737598419189453 54.80904006958008,28.954599380493164 55.321041107177734,27.10759925842285 56.39604187011719,27.005598068237305 56.61603927612305,26.211599349975586 56.234039306640625,26.163599014282227 56.09604263305664,26.716598510742188 55.065040588378906,26.827598571777344 54.44704055786133,29.05259895324707 57.23004150390625,31.091596603393555 62.203041076660156,31.111600875854492 "/>
     <polygon fill="none" id="svg_75" points="53.38804244995117,46.97560119628906 37.885040283203125,103.02159881591797 50.19504165649414,103.27760314941406 65.70104217529297,47.23160171508789 "/>
     <g id="svg_76">
      <polygon fill="none" id="svg_77" points="17.546043395996094,91.12159729003906 26.215042114257812,96.68659973144531 41.86603927612305,40.49359893798828 33.19704055786133,34.928598403930664 "/>
      <polygon fill="none" id="svg_78" points="26.752042770385742,97.03160095214844 35.46004104614258,102.62360382080078 51.11204147338867,46.430599212646484 42.40304183959961,40.838600158691406 "/>
      <polygon fill="none" id="svg_79" points="51.664039611816406,36.87459945678711 36.09403991699219,26.878599166870117 36.10704040527344,26.83159828186035 35.48303985595703,26.329599380493164 33.639041900634766,32.97360038757324 51.7530403137207,44.67060089111328 52.907039642333984,40.84159851074219 53.22304153442383,39.697601318359375 53.251041412353516,39.69860076904297 53.70603942871094,38.18560028076172 51.67103958129883,36.879600524902344 "/>
      <polygon fill="none" id="svg_80" points="79.8740463256836,39.0265998840332 55.55104064941406,38.520599365234375 53.71504211425781,45.13560104370117 79.36304473876953,45.610599517822266 81.20104217529297,38.99359893798828 79.87904357910156,39.011600494384766 "/>
      <polygon fill="none" id="svg_81" points="62.84904479980469,28.80059814453125 62.06504821777344,28.28959846496582 62.35504150390625,27.534597396850586 61.93804168701172,27.48059844970703 61.663047790527344,28.468599319458008 62.434043884277344,29.01959800720215 61.9200439453125,30.656599044799805 57.38804244995117,30.737598419189453 54.80904006958008,28.954599380493164 55.321041107177734,27.10759925842285 56.39604187011719,27.005598068237305 56.61603927612305,26.211599349975586 56.234039306640625,26.163599014282227 56.09604263305664,26.716598510742188 55.065040588378906,26.827598571777344 54.44704055786133,29.05259895324707 57.23004150390625,31.091596603393555 62.203041076660156,31.111600875854492 "/>
      <polygon fill="none" id="svg_82" points="66.46004486083984,47.24760055541992 50.95404052734375,103.29060363769531 63.21104431152344,103.54560089111328 78.717041015625,47.502601623535156 "/>
      <polygon fill="none" id="svg_83" points="53.38804244995117,46.97560119628906 37.885040283203125,103.02159881591797 50.19504165649414,103.27760314941406 65.70104217529297,47.23160171508789 "/>
      <path d="m66.58,103.73l-1.53,-0.88l16.13,-58.34l0.85,0.01l1.16,-4.2l-0.84,-0.02l0.31,-1.13l-2.32,-1.84l0.22,-0.8l-1.07,-1.02l0.42,-1.51l-17.1,-8.62l0.48,-1.72l1.98,-0.35l-3.67,-4.22l-4.96,2.06l1.05,1.03l-0.54,1.95l-18.71,-1.65l-0.51,1.85l-1.14,0.04l-0.31,1.11l-2.1,0.32l-0.18,0.64l-0.74,0.11l-1.17,4.22l0.6,0.38l-16.32,58.59l-1.47,-0.05l-0.98,3.53l20.85,13.9l30.64,0.13l0.97,-3.52zm-6.99,-79.75l2.93,-0.18l-1.28,5.16l-3.16,0.49l-1.24,-1.53l1.4,-5.3l1.35,1.36zm-33.38,72.71l-8.67,-5.57l15.66,-56.19l8.66,5.56l-15.65,56.2zm9.25,5.93l-8.71,-5.59l15.65,-56.19l8.71,5.59l-15.65,56.19zm17.79,-62.92l-0.03,0l-0.31,1.14l-1.16,3.83l-18.11,-11.7l1.84,-6.64l0.63,0.5l-0.02,0.05l15.57,9.99l0.01,0.01l2.03,1.3l-0.45,1.52zm-15.37,63.32l15.51,-56.05l12.31,0.26l-15.51,56.05l-12.31,-0.26zm13.07,0.27l15.51,-56.04l12.26,0.25l-15.51,56.04l-12.26,-0.25zm28.41,-57.68l-25.65,-0.48l1.84,-6.61l24.32,0.5l0.01,-0.01l1.32,-0.02l-1.84,6.62z" id="svg_84"/>
     </g>
    </g>
   </g>
  </g>
 </g>
</svg>